<svg xmlns="http://www.w3.org/2000/svg" xmlns:xlink="http://www.w3.org/1999/xlink" width="16" height="16" viewBox="0 0 16 16">
    <defs>
        <path id="a" d="M7.125 0v.002h1.663c1.895.003 2.24.015 3.155.057.952.043 1.468.202 1.812.336.456.176.78.388 1.122.73.341.341.553.666.73 1.122.134.343.293.86.336 1.811.04.877.053 1.23.056 2.926v2.032c-.003 1.696-.016 2.05-.056 2.926-.043.952-.202 1.468-.336 1.812-.177.455-.389.78-.73 1.12a3.018 3.018 0 0 1-1.122.73c-.343.135-.86.294-1.812.337-.876.04-1.23.053-2.926.056H6.983c-1.696-.003-2.05-.016-2.926-.056-.952-.044-1.468-.203-1.812-.336a3.023 3.023 0 0 1-1.123-.73 3.025 3.025 0 0 1-.73-1.122C.26 13.41.1 12.893.056 11.942c-.04-.877-.052-1.23-.055-2.927V6.98c.003-1.696.015-2.049.055-2.925C.1 3.104.26 2.588.392 2.244c.177-.456.389-.78.73-1.122a3.029 3.029 0 0 1 1.123-.73c.344-.135.86-.293 1.812-.337.9-.04 1.249-.053 3.068-.055zM8 2.991a5.012 5.012 0 1 0 .217.005L8 2.99zM8 4.75a3.253 3.253 0 1 1 0 6.505A3.253 3.253 0 0 1 8 4.75zm5.21-3.128a1.171 1.171 0 1 0 0 2.343 1.171 1.171 0 0 0 0-2.343z"/>
    </defs>
    <use fill="#FFF" fill-rule="evenodd" xlink:href="#a"/>
</svg>
