<svg xmlns="http://www.w3.org/2000/svg" xmlns:xlink="http://www.w3.org/1999/xlink" width="16" height="16" viewBox="0 0 16 16">
    <defs>
        <path id="a" d="M3.632 4.967v10.304H.202V4.967h3.43zm8.42-.242C14.307 4.725 16 6.198 16 9.363v5.908h-3.43V9.76c0-1.385-.496-2.33-1.737-2.33-.948 0-1.512.637-1.76 1.252-.09.22-.113.528-.113.836v5.754H5.53s.046-9.337 0-10.303h3.43v1.459c.455-.702 1.27-1.702 3.091-1.702zM1.94 0c1.173 0 1.896.77 1.918 1.78 0 .99-.745 1.78-1.94 1.78h-.022C.744 3.56 0 2.77 0 1.78 0 .77.767 0 1.94 0z"/>
    </defs>
    <use fill="#FFF" fill-rule="evenodd" xlink:href="#a"/>
</svg>
