<svg xmlns="http://www.w3.org/2000/svg" width="24" height="24" viewBox="0 0 24 24">
    <path fill="#FFF" d="M10.406.03C4.668.03 0 4.697 0 10.435c0 5.739 4.668 10.406 10.406 10.406 1.754 0 3.478-.416 4.935-1.219.117.14.246.27.387.387l2.973 2.973c.748.842 1.9 1.2 2.994.93 1.093-.27 1.946-1.124 2.216-2.217.27-1.094-.087-2.246-.93-2.994l-2.972-2.973c-.145-.145-.304-.275-.476-.387.803-1.457 1.308-3.151 1.308-4.935C20.841 4.668 16.174 0 10.435 0l-.03.03zM10.515 3C14.677 3 18 6.323 18 10.485c0 1.976-.719 3.802-1.976 5.15l-.09.09c-.141.117-.272.247-.39.389C14.229 17.31 12.432 18 10.486 18 6.323 18 3 14.677 3 10.515 3 6.353 6.323 3.03 10.485 3.03l.03-.03z"/>
</svg>
